<svg width="18" height="18" viewBox="0 0 18 18" fill="none" xmlns="http://www.w3.org/2000/svg">
<g id="Component 4">
<path id="Vector" d="M12.4617 2.75752C11.8363 2.24316 11.104 1.8749 10.3181 1.67961C9.53227 1.48433 8.71273 1.46694 7.91931 1.62872C6.86284 1.84212 5.89358 2.36453 5.13449 3.12967C4.3754 3.89481 3.86071 4.86819 3.65571 5.92632C3.506 6.71969 3.53321 7.53632 3.73538 8.31797C3.93755 9.09962 4.30971 9.82703 4.82531 10.4483C5.30381 10.9883 5.57809 11.6788 5.60051 12.3999V14.4399C5.60051 14.981 5.81544 15.4998 6.19801 15.8824C6.58058 16.265 7.09947 16.4799 7.64051 16.4799H10.3605C10.9015 16.4799 11.4204 16.265 11.803 15.8824C12.1856 15.4998 12.4005 14.981 12.4005 14.4399V12.5291C12.4233 11.733 12.7158 10.9681 13.2301 10.3599C14.1312 9.24525 14.5559 7.82 14.4121 6.39391C14.2682 4.96781 13.5673 3.65613 12.4617 2.74392V2.75752ZM11.0405 14.4399C11.0405 14.6203 10.9689 14.7932 10.8413 14.9208C10.7138 15.0483 10.5409 15.1199 10.3605 15.1199H7.64051C7.46016 15.1199 7.2872 15.0483 7.15967 14.9208C7.03215 14.7932 6.96051 14.6203 6.96051 14.4399V13.7599H11.0405V14.4399ZM12.1761 9.51672C11.4924 10.3277 11.0935 11.3405 11.0405 12.3999H9.68051V10.3599C9.68051 10.1796 9.60886 10.0066 9.48134 9.87909C9.35382 9.75156 9.18085 9.67992 9.00051 9.67992C8.82016 9.67992 8.6472 9.75156 8.51967 9.87909C8.39215 10.0066 8.32051 10.1796 8.32051 10.3599V12.3999H6.96051C6.94257 11.3582 6.55723 10.3564 5.87251 9.57112C5.42074 9.02984 5.11695 8.38073 4.99076 7.68708C4.86456 6.99343 4.92027 6.27891 5.15245 5.6132C5.38462 4.94749 5.78535 4.3533 6.31554 3.88858C6.84574 3.42386 7.48731 3.10446 8.17771 2.96152C8.77104 2.83935 9.38414 2.85084 9.97248 2.99516C10.5608 3.13947 11.1096 3.41299 11.5791 3.79585C12.0486 4.17871 12.4269 4.6613 12.6866 5.20859C12.9463 5.75588 13.0808 6.35414 13.0805 6.95992C13.0855 7.89143 12.7657 8.79556 12.1761 9.51672V9.51672Z" fill="#862FE7"/>
</g>
</svg>
