<svg width="32" height="32" viewBox="0 0 32 32" fill="none" xmlns="http://www.w3.org/2000/svg">
<path fill-rule="evenodd" clip-rule="evenodd" d="M3 15.5C3 18.5376 5.46243 21 8.5 21H23C26.3137 21 29 18.3137 29 15C29 11.6863 26.3137 9 23 9C22.9423 9 22.8848 9.00081 22.8275 9.00243C21.7046 6.63617 19.2934 5 16.5 5C13.2771 5 10.563 7.17803 9.74913 10.1425C9.34782 10.0493 8.92966 10 8.5 10C5.46243 10 3 12.4624 3 15.5Z" fill="#862FE7"/>
<path d="M9.75 16.5C9.75 15.8096 10.3096 15.25 11 15.25H21C21.6904 15.25 22.25 15.8096 22.25 16.5V20.5C22.25 23.9518 19.4518 26.75 16 26.75C12.5482 26.75 9.75 23.9518 9.75 20.5V16.5Z" fill="#DBDBDB" stroke="#DBDBDB" stroke-width="0.5"/>
<mask id="path-3-inside-1_6001_386" fill="white">
<path fill-rule="evenodd" clip-rule="evenodd" d="M10.75 24.334L13.0323 15H15.0323L12.3689 25.8924C11.7433 25.4704 11.1951 24.9423 10.75 24.334ZM14.1625 26.7368C13.8467 26.644 13.541 26.5278 13.2472 26.3903L16.0323 15H17.0323L14.1625 26.7368Z"/>
</mask>
<path fill-rule="evenodd" clip-rule="evenodd" d="M10.75 24.334L13.0323 15H15.0323L12.3689 25.8924C11.7433 25.4704 11.1951 24.9423 10.75 24.334ZM14.1625 26.7368C13.8467 26.644 13.541 26.5278 13.2472 26.3903L16.0323 15H17.0323L14.1625 26.7368Z" fill="white"/>
<path d="M10.75 24.334L10.2643 24.2153L10.209 24.4414L10.3465 24.6292L10.75 24.334ZM13.0323 15V14.5H12.6398L12.5466 14.8812L13.0323 15ZM15.0323 15L15.518 15.1188L15.6693 14.5H15.0323V15ZM12.3689 25.8924L12.0893 26.3069L12.6842 26.7082L12.8546 26.0112L12.3689 25.8924ZM14.1625 26.7368L14.0214 27.2165L14.5238 27.3642L14.6482 26.8556L14.1625 26.7368ZM13.2472 26.3903L12.7615 26.2715L12.6642 26.6695L13.0353 26.8431L13.2472 26.3903ZM16.0323 15V14.5H15.6398L15.5466 14.8812L16.0323 15ZM17.0323 15L17.518 15.1188L17.6693 14.5H17.0323V15ZM11.2357 24.4528L13.518 15.1188L12.5466 14.8812L10.2643 24.2153L11.2357 24.4528ZM13.0323 15.5H15.0323V14.5H13.0323V15.5ZM14.5466 14.8812L11.8833 25.7737L12.8546 26.0112L15.518 15.1188L14.5466 14.8812ZM12.6486 25.4779C12.0709 25.0882 11.5645 24.6005 11.1535 24.0388L10.3465 24.6292C10.8256 25.2841 11.4157 25.8525 12.0893 26.3069L12.6486 25.4779ZM14.3035 26.2571C14.0123 26.1715 13.7302 26.0643 13.4592 25.9374L13.0353 26.8431C13.3517 26.9913 13.6812 27.1165 14.0214 27.2165L14.3035 26.2571ZM13.7329 26.5091L16.518 15.1188L15.5466 14.8812L12.7615 26.2715L13.7329 26.5091ZM16.0323 15.5H17.0323V14.5H16.0323V15.5ZM16.5466 14.8812L13.6768 26.6181L14.6482 26.8556L17.518 15.1188L16.5466 14.8812Z" fill="#DBDBDB" mask="url(#path-3-inside-1_6001_386)"/>
<path d="M19 13C19 12.2044 18.6839 11.4413 18.1213 10.8787C17.5587 10.3161 16.7956 10 16 10C15.2044 10 14.4413 10.3161 13.8787 10.8787C13.3161 11.4413 13 12.2044 13 13" stroke="#DBDBDB" stroke-width="1.5" stroke-linecap="round"/>
<mask id="path-6-inside-2_6001_386" fill="white">
<path fill-rule="evenodd" clip-rule="evenodd" d="M16.9015 21.1061C16.8497 20.8988 16.9419 20.6868 17.0889 20.5317C17.3437 20.2628 17.5 19.8997 17.5 19.5C17.5 18.6716 16.8284 18 16 18C15.1716 18 14.5 18.6716 14.5 19.5C14.5 19.8997 14.6563 20.2628 14.9111 20.5317C15.0581 20.6868 15.1503 20.8988 15.0985 21.1061L14.6553 22.8787C14.5764 23.1943 14.8151 23.5 15.1404 23.5H16.8596C17.1849 23.5 17.4236 23.1943 17.3447 22.8787L16.9015 21.1061Z"/>
</mask>
<path fill-rule="evenodd" clip-rule="evenodd" d="M16.9015 21.1061C16.8497 20.8988 16.9419 20.6868 17.0889 20.5317C17.3437 20.2628 17.5 19.8997 17.5 19.5C17.5 18.6716 16.8284 18 16 18C15.1716 18 14.5 18.6716 14.5 19.5C14.5 19.8997 14.6563 20.2628 14.9111 20.5317C15.0581 20.6868 15.1503 20.8988 15.0985 21.1061L14.6553 22.8787C14.5764 23.1943 14.8151 23.5 15.1404 23.5H16.8596C17.1849 23.5 17.4236 23.1943 17.3447 22.8787L16.9015 21.1061Z" fill="#862FE7"/>
<path d="M14.6553 22.8787L14.1702 22.7575L14.6553 22.8787ZM14.9111 20.5317L14.5482 20.8756H14.5482L14.9111 20.5317ZM17.0889 20.5317L16.726 20.1877L17.0889 20.5317ZM16.9015 21.1061L16.4164 21.2273L16.9015 21.1061ZM17 19.5C17 19.7667 16.8963 20.008 16.726 20.1877L17.4518 20.8756C17.7911 20.5176 18 20.0327 18 19.5H17ZM16 18.5C16.5523 18.5 17 18.9477 17 19.5H18C18 18.3954 17.1046 17.5 16 17.5V18.5ZM15 19.5C15 18.9477 15.4477 18.5 16 18.5V17.5C14.8954 17.5 14 18.3954 14 19.5H15ZM15.274 20.1877C15.1037 20.008 15 19.7667 15 19.5H14C14 20.0327 14.2089 20.5176 14.5482 20.8756L15.274 20.1877ZM15.1404 23L15.5836 21.2273L14.6134 20.9848L14.1702 22.7575L15.1404 23ZM16.8596 23H15.1404V24H16.8596V23ZM16.4164 21.2273L16.8596 23L17.8298 22.7575L17.3866 20.9848L16.4164 21.2273ZM14.1702 22.7575C14.0125 23.3886 14.4898 24 15.1404 24V23H15.1404L14.1702 22.7575ZM14.5482 20.8756C14.5812 20.9104 14.6 20.9437 14.6082 20.9668C14.6157 20.9877 14.6118 20.9914 14.6134 20.9848L15.5836 21.2273C15.6912 20.7967 15.4909 20.4165 15.274 20.1877L14.5482 20.8756ZM16.8596 24C17.5102 24 17.9875 23.3886 17.8298 22.7575L16.8596 23V24ZM16.726 20.1877C16.5091 20.4165 16.3088 20.7967 16.4164 21.2273L17.3866 20.9848C17.3882 20.9914 17.3843 20.9877 17.3918 20.9668C17.4 20.9437 17.4188 20.9104 17.4518 20.8756L16.726 20.1877Z" fill="#DBDBDB" mask="url(#path-6-inside-2_6001_386)"/>
</svg>
