<svg width="21" height="21" viewBox="0 0 21 21" fill="none" xmlns="http://www.w3.org/2000/svg">
<path d="M7.5 10.21L7.79 9.91L8.08 10.21C8.17297 10.3037 8.28357 10.3781 8.40543 10.4289C8.52729 10.4797 8.65799 10.5058 8.79 10.5058C8.92202 10.5058 9.05272 10.4797 9.17458 10.4289C9.29644 10.3781 9.40704 10.3037 9.5 10.21C9.59373 10.117 9.66813 10.0064 9.7189 9.88458C9.76966 9.76272 9.7958 9.63201 9.7958 9.5C9.7958 9.36799 9.76966 9.23728 9.7189 9.11542C9.66813 8.99356 9.59373 8.88296 9.5 8.79L9.2 8.5L9.5 8.21C9.68831 8.01639 9.79199 7.75591 9.78824 7.48586C9.78449 7.21581 9.67361 6.9583 9.48 6.77C9.2864 6.5817 9.02591 6.47802 8.75586 6.48177C8.48581 6.48552 8.22831 6.59639 8.04 6.79L7.75 7.09L7.5 6.79C7.3117 6.59639 7.0542 6.48552 6.78415 6.48177C6.51409 6.47802 6.25361 6.5817 6.06 6.77C5.8664 6.9583 5.75552 7.21581 5.75177 7.48586C5.74802 7.75591 5.8517 8.01639 6.04 8.21L6.34 8.5L6.04 8.79C5.94628 8.88296 5.87188 8.99356 5.82111 9.11542C5.77034 9.23728 5.74421 9.36799 5.74421 9.5C5.74421 9.63201 5.77034 9.76272 5.82111 9.88458C5.87188 10.0064 5.94628 10.117 6.04 10.21C6.13297 10.3037 6.24357 10.3781 6.36543 10.4289C6.48729 10.4797 6.61799 10.5058 6.75 10.5058C6.88202 10.5058 7.01272 10.4797 7.13458 10.4289C7.25644 10.3781 7.36704 10.3037 7.46 10.21H7.5ZM13.5 12.5H7.5C7.23479 12.5 6.98043 12.6054 6.7929 12.7929C6.60536 12.9804 6.5 13.2348 6.5 13.5C6.5 13.7652 6.60536 14.0196 6.7929 14.2071C6.98043 14.3946 7.23479 14.5 7.5 14.5H13.5C13.7652 14.5 14.0196 14.3946 14.2071 14.2071C14.3946 14.0196 14.5 13.7652 14.5 13.5C14.5 13.2348 14.3946 12.9804 14.2071 12.7929C14.0196 12.6054 13.7652 12.5 13.5 12.5ZM10.5 0.5C8.52219 0.5 6.58879 1.08649 4.9443 2.1853C3.29981 3.28412 2.01809 4.8459 1.26121 6.67317C0.504333 8.50043 0.306299 10.5111 0.692152 12.4509C1.078 14.3907 2.03041 16.1725 3.42894 17.5711C4.82746 18.9696 6.60929 19.922 8.5491 20.3079C10.4889 20.6937 12.4996 20.4957 14.3268 19.7388C16.1541 18.9819 17.7159 17.7002 18.8147 16.0557C19.9135 14.4112 20.5 12.4778 20.5 10.5C20.5 9.18678 20.2413 7.88642 19.7388 6.67317C19.2363 5.45991 18.4997 4.35752 17.5711 3.42893C16.6425 2.50035 15.5401 1.76375 14.3268 1.2612C13.1136 0.758658 11.8132 0.5 10.5 0.5ZM10.5 18.5C8.91775 18.5 7.37104 18.0308 6.05544 17.1518C4.73985 16.2727 3.71447 15.0233 3.10897 13.5615C2.50347 12.0997 2.34504 10.4911 2.65372 8.93928C2.9624 7.38743 3.72433 5.96197 4.84315 4.84315C5.96197 3.72433 7.38743 2.9624 8.93928 2.65372C10.4911 2.34504 12.0997 2.50346 13.5615 3.10896C15.0233 3.71447 16.2727 4.73984 17.1518 6.05544C18.0308 7.37103 18.5 8.91775 18.5 10.5C18.5 12.6217 17.6572 14.6566 16.1569 16.1569C14.6566 17.6571 12.6217 18.5 10.5 18.5ZM15.5 6.79C15.407 6.69627 15.2964 6.62188 15.1746 6.57111C15.0527 6.52034 14.922 6.4942 14.79 6.4942C14.658 6.4942 14.5273 6.52034 14.4054 6.57111C14.2836 6.62188 14.173 6.69627 14.08 6.79L13.79 7.09L13.5 6.79C13.3117 6.6017 13.0563 6.49591 12.79 6.49591C12.5237 6.49591 12.2683 6.6017 12.08 6.79C11.8917 6.9783 11.7859 7.2337 11.7859 7.5C11.7859 7.7663 11.8917 8.0217 12.08 8.21L12.38 8.5L12.08 8.79C11.9863 8.88296 11.9119 8.99356 11.8611 9.11542C11.8103 9.23728 11.7842 9.36799 11.7842 9.5C11.7842 9.63201 11.8103 9.76272 11.8611 9.88458C11.9119 10.0064 11.9863 10.117 12.08 10.21C12.173 10.3037 12.2836 10.3781 12.4054 10.4289C12.5273 10.4797 12.658 10.5058 12.79 10.5058C12.922 10.5058 13.0527 10.4797 13.1746 10.4289C13.2964 10.3781 13.407 10.3037 13.5 10.21L13.79 9.91L14.08 10.21C14.173 10.3037 14.2836 10.3781 14.4054 10.4289C14.5273 10.4797 14.658 10.5058 14.79 10.5058C14.922 10.5058 15.0527 10.4797 15.1746 10.4289C15.2964 10.3781 15.407 10.3037 15.5 10.21C15.5937 10.117 15.6681 10.0064 15.7189 9.88458C15.7697 9.76272 15.7958 9.63201 15.7958 9.5C15.7958 9.36799 15.7697 9.23728 15.7189 9.11542C15.6681 8.99356 15.5937 8.88296 15.5 8.79L15.2 8.5L15.5 8.21C15.5937 8.11704 15.6681 8.00644 15.7189 7.88458C15.7697 7.76272 15.7958 7.63201 15.7958 7.5C15.7958 7.36799 15.7697 7.23728 15.7189 7.11542C15.6681 6.99356 15.5937 6.88296 15.5 6.79Z" fill="#D64949"/>
</svg>
