<svg width="32" height="32" viewBox="0 0 32 32" fill="none" xmlns="http://www.w3.org/2000/svg">
<path d="M27.2556 15.1237C27.7104 15.6279 27.7104 16.3721 27.2556 16.8763C25.5612 18.7548 21.1611 23 16 23C10.8389 23 6.43877 18.7548 4.74438 16.8763C4.28957 16.3721 4.28957 15.6279 4.74438 15.1237C6.43877 13.2452 10.8389 9 16 9C21.1611 9 25.5612 13.2452 27.2556 15.1237Z" fill="#862FE7"/>
<circle cx="16" cy="16" r="4.5" fill="#DBDBDB"/>
<path d="M19.25 14.5C19.9404 14.5 20.5 13.9404 20.5 13.25C20.5 12.5596 19.9404 12 19.25 12C18.5596 12 18 12.5596 18 13.25C18 13.9404 18.5596 14.5 19.25 14.5Z" fill="white"/>
<path d="M17.75 15.5C18.1642 15.5 18.5 15.1642 18.5 14.75C18.5 14.3358 18.1642 14 17.75 14C17.3358 14 17 14.3358 17 14.75C17 15.1642 17.3358 15.5 17.75 15.5Z" fill="white"/>
<path d="M5 9.5V7H7.5" stroke="#862FE7" stroke-width="1.5" stroke-linecap="round" stroke-linejoin="round"/>
<path d="M5 22.5V25H7.5" stroke="#862FE7" stroke-width="1.5" stroke-linecap="round" stroke-linejoin="round"/>
<path d="M27 9.5V7H24.5" stroke="#862FE7" stroke-width="1.5" stroke-linecap="round" stroke-linejoin="round"/>
<path d="M27 22.5V25H24.5" stroke="#862FE7" stroke-width="1.5" stroke-linecap="round" stroke-linejoin="round"/>
</svg>
