<svg width="21" height="21" viewBox="0 0 21 21" fill="none" xmlns="http://www.w3.org/2000/svg">
<path d="M17.5 0.5H3.5C2.70435 0.5 1.94129 0.816071 1.37868 1.37868C0.816071 1.94129 0.5 2.70435 0.5 3.5V4.67C0.499857 5.08294 0.584966 5.49147 0.75 5.87V5.93C0.89128 6.25097 1.09139 6.54266 1.34 6.79L7.5 12.91V19.5C7.49966 19.6699 7.54264 19.8372 7.62487 19.9859C7.70711 20.1346 7.82589 20.2599 7.97 20.35C8.12914 20.4486 8.31277 20.5006 8.5 20.5C8.65654 20.4991 8.81068 20.4614 8.95 20.39L12.95 18.39C13.1149 18.3069 13.2536 18.1798 13.3507 18.0227C13.4478 17.8656 13.4994 17.6847 13.5 17.5V12.91L19.62 6.79C19.8686 6.54266 20.0687 6.25097 20.21 5.93V5.87C20.3888 5.49443 20.4876 5.08578 20.5 4.67V3.5C20.5 2.70435 20.1839 1.94129 19.6213 1.37868C19.0587 0.816071 18.2956 0.5 17.5 0.5ZM11.79 11.79C11.6973 11.8834 11.624 11.9943 11.5742 12.1161C11.5245 12.2379 11.4992 12.3684 11.5 12.5V16.88L9.5 17.88V12.5C9.50076 12.3684 9.47554 12.2379 9.42577 12.1161C9.37601 11.9943 9.30268 11.8834 9.21 11.79L3.91 6.5H17.09L11.79 11.79ZM18.5 4.5H2.5V3.5C2.5 3.23478 2.60536 2.98043 2.79289 2.79289C2.98043 2.60536 3.23478 2.5 3.5 2.5H17.5C17.7652 2.5 18.0196 2.60536 18.2071 2.79289C18.3946 2.98043 18.5 3.23478 18.5 3.5V4.5Z" fill="#D64949"/>
</svg>
