<svg width="24" height="24" viewBox="0 0 24 24" fill="none" xmlns="http://www.w3.org/2000/svg">
<g id="MagicWand">
<path id="Vector" d="M4.50071 6.00024C4.50071 5.80133 4.57973 5.61057 4.72038 5.46991C4.86103 5.32926 5.0518 5.25024 5.25071 5.25024H6.75071V3.75024C6.75071 3.55133 6.82973 3.36057 6.97038 3.21991C7.11103 3.07926 7.3018 3.00024 7.50071 3.00024C7.69962 3.00024 7.89039 3.07926 8.03104 3.21991C8.17169 3.36057 8.25071 3.55133 8.25071 3.75024V5.25024H9.75071C9.94962 5.25024 10.1404 5.32926 10.281 5.46991C10.4217 5.61057 10.5007 5.80133 10.5007 6.00024C10.5007 6.19916 10.4217 6.38992 10.281 6.53057C10.1404 6.67123 9.94962 6.75024 9.75071 6.75024H8.25071V8.25024C8.25071 8.44916 8.17169 8.63992 8.03104 8.78057C7.89039 8.92123 7.69962 9.00024 7.50071 9.00024C7.3018 9.00024 7.11103 8.92123 6.97038 8.78057C6.82973 8.63992 6.75071 8.44916 6.75071 8.25024V6.75024H5.25071C5.0518 6.75024 4.86103 6.67123 4.72038 6.53057C4.57973 6.38992 4.50071 6.19916 4.50071 6.00024ZM17.2507 18.0002H16.5007V17.2502C16.5007 17.0513 16.4217 16.8606 16.281 16.7199C16.1404 16.5793 15.9496 16.5002 15.7507 16.5002C15.5518 16.5002 15.361 16.5793 15.2204 16.7199C15.0797 16.8606 15.0007 17.0513 15.0007 17.2502V18.0002H14.2507C14.0518 18.0002 13.861 18.0793 13.7204 18.2199C13.5797 18.3606 13.5007 18.5513 13.5007 18.7502C13.5007 18.9492 13.5797 19.1399 13.7204 19.2806C13.861 19.4212 14.0518 19.5002 14.2507 19.5002H15.0007V20.2502C15.0007 20.4492 15.0797 20.6399 15.2204 20.7806C15.361 20.9212 15.5518 21.0002 15.7507 21.0002C15.9496 21.0002 16.1404 20.9212 16.281 20.7806C16.4217 20.6399 16.5007 20.4492 16.5007 20.2502V19.5002H17.2507C17.4496 19.5002 17.6404 19.4212 17.781 19.2806C17.9217 19.1399 18.0007 18.9492 18.0007 18.7502C18.0007 18.5513 17.9217 18.3606 17.781 18.2199C17.6404 18.0793 17.4496 18.0002 17.2507 18.0002ZM22.5007 13.5002H21.0007V12.0002C21.0007 11.8013 20.9217 11.6106 20.781 11.4699C20.6404 11.3293 20.4496 11.2502 20.2507 11.2502C20.0518 11.2502 19.861 11.3293 19.7204 11.4699C19.5797 11.6106 19.5007 11.8013 19.5007 12.0002V13.5002H18.0007C17.8018 13.5002 17.611 13.5793 17.4704 13.7199C17.3297 13.8606 17.2507 14.0513 17.2507 14.2502C17.2507 14.4492 17.3297 14.6399 17.4704 14.7806C17.611 14.9212 17.8018 15.0002 18.0007 15.0002H19.5007V16.5002C19.5007 16.6992 19.5797 16.8899 19.7204 17.0306C19.861 17.1712 20.0518 17.2502 20.2507 17.2502C20.4496 17.2502 20.6404 17.1712 20.781 17.0306C20.9217 16.8899 21.0007 16.6992 21.0007 16.5002V15.0002H22.5007C22.6996 15.0002 22.8904 14.9212 23.031 14.7806C23.1717 14.6399 23.2507 14.4492 23.2507 14.2502C23.2507 14.0513 23.1717 13.8606 23.031 13.7199C22.8904 13.5793 22.6996 13.5002 22.5007 13.5002ZM20.561 7.50024L7.50071 20.5606C7.21943 20.8416 6.83805 20.9995 6.4404 20.9995C6.04274 20.9995 5.66136 20.8416 5.38009 20.5606L3.43946 18.6218C3.30014 18.4825 3.18962 18.3171 3.11421 18.1351C3.03881 17.9531 3 17.758 3 17.561C3 17.364 3.03881 17.1689 3.11421 16.9869C3.18962 16.8049 3.30014 16.6395 3.43946 16.5002L16.5007 3.43993C16.64 3.30061 16.8054 3.19009 16.9874 3.11468C17.1694 3.03928 17.3645 3.00047 17.5615 3.00047C17.7585 3.00047 17.9536 3.03928 18.1356 3.11468C18.3176 3.19009 18.483 3.30061 18.6223 3.43993L20.561 5.37868C20.7003 5.51797 20.8109 5.68335 20.8863 5.86536C20.9617 6.04737 21.0005 6.24245 21.0005 6.43946C21.0005 6.63647 20.9617 6.83156 20.8863 7.01357C20.8109 7.19558 20.7003 7.36095 20.561 7.50024ZM15.4395 10.5002L13.5007 8.56056L4.50071 17.5606L6.43946 19.5002L15.4395 10.5002ZM19.5007 6.43993L17.561 4.50024L14.561 7.50024L16.5007 9.43993L19.5007 6.43993Z" fill="#862FE7"/>
</g>
</svg>
