<svg width="21" height="19" viewBox="0 0 21 19" fill="none" xmlns="http://www.w3.org/2000/svg">
<path d="M19.5 8.49994C19.2348 8.49994 18.9804 8.6053 18.7929 8.79284C18.6054 8.98037 18.5 9.23472 18.5 9.49994V15.4999C18.5 15.7652 18.3946 16.0195 18.2071 16.207C18.0196 16.3946 17.7652 16.4999 17.5 16.4999H3.5C3.23478 16.4999 2.98043 16.3946 2.79289 16.207C2.60536 16.0195 2.5 15.7652 2.5 15.4999V5.90994L8.38 11.7999C8.94125 12.3566 9.69951 12.6693 10.49 12.6699C11.3004 12.6658 12.0764 12.3424 12.65 11.7699L14.37 10.0499C14.5583 9.86164 14.6641 9.60624 14.6641 9.33994C14.6641 9.07364 14.5583 8.81825 14.37 8.62994C14.1817 8.44164 13.9263 8.33585 13.66 8.33585C13.3937 8.33585 13.1383 8.44164 12.95 8.62994L11.2 10.3799C11.0131 10.5632 10.7618 10.6658 10.5 10.6658C10.2382 10.6658 9.98693 10.5632 9.8 10.3799L3.91 4.49994H11.5C11.7652 4.49994 12.0196 4.39458 12.2071 4.20705C12.3946 4.01951 12.5 3.76516 12.5 3.49994C12.5 3.23472 12.3946 2.98037 12.2071 2.79283C12.0196 2.6053 11.7652 2.49994 11.5 2.49994H3.5C2.70435 2.49994 1.94129 2.81601 1.37868 3.37862C0.816071 3.94123 0.5 4.70429 0.5 5.49994V15.4999C0.5 16.2956 0.816071 17.0587 1.37868 17.6213C1.94129 18.1839 2.70435 18.4999 3.5 18.4999H17.5C18.2956 18.4999 19.0587 18.1839 19.6213 17.6213C20.1839 17.0587 20.5 16.2956 20.5 15.4999V9.49994C20.5 9.23472 20.3946 8.98037 20.2071 8.79284C20.0196 8.6053 19.7652 8.49994 19.5 8.49994ZM18.91 3.49994L20.21 2.20994C20.3983 2.02164 20.5041 1.76624 20.5041 1.49994C20.5041 1.23364 20.3983 0.978245 20.21 0.789941C20.0217 0.601638 19.7663 0.49585 19.5 0.49585C19.2337 0.49585 18.9783 0.601638 18.79 0.789941L17.5 2.08994L16.21 0.789941C16.1168 0.696703 16.0061 0.622742 15.8842 0.572282C15.7624 0.521821 15.6319 0.49585 15.5 0.49585C15.2337 0.49585 14.9783 0.601638 14.79 0.789941C14.6017 0.978245 14.4959 1.23364 14.4959 1.49994C14.4959 1.76624 14.6017 2.02164 14.79 2.20994L16.09 3.49994L14.79 4.78994C14.6963 4.8829 14.6219 4.99351 14.5711 5.11536C14.5203 5.23722 14.4942 5.36793 14.4942 5.49994C14.4942 5.63195 14.5203 5.76266 14.5711 5.88452C14.6219 6.00638 14.6963 6.11698 14.79 6.20994C14.883 6.30367 14.9936 6.37806 15.1154 6.42883C15.2373 6.4796 15.368 6.50574 15.5 6.50574C15.632 6.50574 15.7627 6.4796 15.8846 6.42883C16.0064 6.37806 16.117 6.30367 16.21 6.20994L17.5 4.90994L18.79 6.20994C18.883 6.30367 18.9936 6.37806 19.1154 6.42883C19.2373 6.4796 19.368 6.50574 19.5 6.50574C19.632 6.50574 19.7627 6.4796 19.8846 6.42883C20.0064 6.37806 20.117 6.30367 20.21 6.20994C20.3037 6.11698 20.3781 6.00638 20.4289 5.88452C20.4797 5.76266 20.5058 5.63195 20.5058 5.49994C20.5058 5.36793 20.4797 5.23722 20.4289 5.11536C20.3781 4.99351 20.3037 4.8829 20.21 4.78994L18.91 3.49994Z" fill="#D64949"/>
</svg>
