<svg width="32" height="32" viewBox="0 0 32 32" fill="none" xmlns="http://www.w3.org/2000/svg">
<path fill-rule="evenodd" clip-rule="evenodd" d="M5.50826 15.9999C5.11516 14.0766 5 12.2413 5 10.7509C5 10.1335 5.01976 9.57529 5.04771 9.09454C5.11256 7.97915 5.99616 7.13621 7.09937 6.95951C8.18858 6.78505 9.5525 6.53001 10.6153 6.21186C11.9517 5.81179 13.7643 5.02684 14.9081 4.50779C15.2549 4.35042 15.6274 4.27173 16 4.27173V15.9999H5.50826Z" fill="#DBDBDB"/>
<path fill-rule="evenodd" clip-rule="evenodd" d="M15.9995 27.8986C15.7665 27.8986 15.5335 27.8623 15.3133 27.7895C8.97494 25.6966 6.44741 20.597 5.50781 16H15.9995V27.8986Z" fill="#862FE7"/>
<path fill-rule="evenodd" clip-rule="evenodd" d="M26.4917 15.9999H16V4.27173C16.3726 4.27173 16.7451 4.35042 17.0919 4.50779C18.2357 5.02684 20.0483 5.81179 21.3847 6.21186C22.4475 6.53001 23.8114 6.78505 24.9006 6.95951C26.0038 7.13621 26.8874 7.97915 26.9523 9.09454C27.0477 10.7359 27.0477 13.2799 26.4917 15.9999Z" fill="#862FE7"/>
<path fill-rule="evenodd" clip-rule="evenodd" d="M26.4917 16C25.5521 20.597 23.0246 25.6966 16.6863 27.7895C16.466 27.8623 16.233 27.8986 16 27.8986V16H26.4917Z" fill="#DBDBDB"/>
<path d="M26.0468 15.0589C26.6108 15.5752 26.6108 16.4248 26.0468 16.9411C24.3301 18.5124 20.4775 21.5 16 21.5C11.5225 21.5 7.66986 18.5124 5.95316 16.9411C5.38918 16.4248 5.38918 15.5752 5.95316 15.0589C7.66986 13.4876 11.5225 10.5 16 10.5C20.4775 10.5 24.3301 13.4876 26.0468 15.0589Z" fill="#DBDBDB"/>
<path d="M26.0468 15.0589C26.6108 15.5752 26.6108 16.4248 26.0468 16.9411C24.3301 18.5124 20.4775 21.5 16 21.5C11.5225 21.5 7.66986 18.5124 5.95316 16.9411C5.38918 16.4248 5.38918 15.5752 5.95316 15.0589C7.66986 13.4876 11.5225 10.5 16 10.5C20.4775 10.5 24.3301 13.4876 26.0468 15.0589Z" fill="#DBDBDB"/>
<circle cx="16" cy="16" r="3.5" fill="#862FE7"/>
<path d="M18.5 15C19.0523 15 19.5 14.5523 19.5 14C19.5 13.4477 19.0523 13 18.5 13C17.9477 13 17.5 13.4477 17.5 14C17.5 14.5523 17.9477 15 18.5 15Z" fill="white"/>
<path d="M17.5 15.5C17.7761 15.5 18 15.2761 18 15C18 14.7239 17.7761 14.5 17.5 14.5C17.2239 14.5 17 14.7239 17 15C17 15.2761 17.2239 15.5 17.5 15.5Z" fill="white"/>
</svg>
