<svg width="16" height="17" viewBox="0 0 16 17" fill="none" xmlns="http://www.w3.org/2000/svg">
<g id="Component 4">
<path id="Vector" d="M12.3493 8.56625L9.12559 7.375L7.93809 4.14875C7.86777 3.95771 7.74053 3.79283 7.57356 3.67637C7.40659 3.5599 7.20791 3.49746 7.00434 3.49746C6.80076 3.49746 6.60208 3.5599 6.43511 3.67637C6.26814 3.79283 6.14091 3.95771 6.07059 4.14875L4.87559 7.375L1.64934 8.5625C1.45829 8.63282 1.29342 8.76005 1.17695 8.92702C1.06049 9.094 0.998047 9.29267 0.998047 9.49625C0.998047 9.69983 1.06049 9.8985 1.17695 10.0655C1.29342 10.2324 1.45829 10.3597 1.64934 10.43L4.87559 11.625L6.06309 14.8512C6.13341 15.0423 6.26064 15.2072 6.42761 15.3236C6.59458 15.4401 6.79326 15.5025 6.99684 15.5025C7.20041 15.5025 7.39909 15.4401 7.56606 15.3236C7.73303 15.2072 7.86027 15.0423 7.93059 14.8512L9.12559 11.625L12.3518 10.4375C12.5429 10.3672 12.7078 10.2399 12.8242 10.073C12.9407 9.906 13.0031 9.70733 13.0031 9.50375C13.0031 9.30017 12.9407 9.1015 12.8242 8.93452C12.7078 8.76755 12.5429 8.64032 12.3518 8.57L12.3493 8.56625ZM8.56309 10.7638C8.49522 10.7888 8.43358 10.8282 8.38244 10.8793C8.33129 10.9305 8.29185 10.9921 8.26684 11.06L7.00059 14.4906L5.73684 11.0625C5.71186 10.9939 5.67218 10.9316 5.62057 10.88C5.56896 10.8284 5.50667 10.7887 5.43809 10.7638L2.00996 9.5L5.43809 8.23625C5.50667 8.21128 5.56896 8.17159 5.62057 8.11998C5.67218 8.06837 5.71186 8.00608 5.73684 7.9375L7.00059 4.50938L8.26434 7.9375C8.28935 8.00537 8.32879 8.067 8.37994 8.11815C8.43108 8.1693 8.49272 8.20874 8.56059 8.23375L11.9912 9.5L8.56309 10.7638ZM9.00059 3C9.00059 2.86739 9.05327 2.74021 9.14703 2.64645C9.2408 2.55268 9.36798 2.5 9.50059 2.5H10.5006V1.5C10.5006 1.36739 10.5533 1.24021 10.647 1.14645C10.7408 1.05268 10.868 1 11.0006 1C11.1332 1 11.2604 1.05268 11.3541 1.14645C11.4479 1.24021 11.5006 1.36739 11.5006 1.5V2.5H12.5006C12.6332 2.5 12.7604 2.55268 12.8541 2.64645C12.9479 2.74021 13.0006 2.86739 13.0006 3C13.0006 3.13261 12.9479 3.25979 12.8541 3.35355C12.7604 3.44732 12.6332 3.5 12.5006 3.5H11.5006V4.5C11.5006 4.63261 11.4479 4.75979 11.3541 4.85355C11.2604 4.94732 11.1332 5 11.0006 5C10.868 5 10.7408 4.94732 10.647 4.85355C10.5533 4.75979 10.5006 4.63261 10.5006 4.5V3.5H9.50059C9.36798 3.5 9.2408 3.44732 9.14703 3.35355C9.05327 3.25979 9.00059 3.13261 9.00059 3ZM15.5006 6C15.5006 6.13261 15.4479 6.25979 15.3541 6.35355C15.2604 6.44732 15.1332 6.5 15.0006 6.5H14.5006V7C14.5006 7.13261 14.4479 7.25979 14.3541 7.35355C14.2604 7.44732 14.1332 7.5 14.0006 7.5C13.868 7.5 13.7408 7.44732 13.647 7.35355C13.5533 7.25979 13.5006 7.13261 13.5006 7V6.5H13.0006C12.868 6.5 12.7408 6.44732 12.647 6.35355C12.5533 6.25979 12.5006 6.13261 12.5006 6C12.5006 5.86739 12.5533 5.74021 12.647 5.64645C12.7408 5.55268 12.868 5.5 13.0006 5.5H13.5006V5C13.5006 4.86739 13.5533 4.74021 13.647 4.64645C13.7408 4.55268 13.868 4.5 14.0006 4.5C14.1332 4.5 14.2604 4.55268 14.3541 4.64645C14.4479 4.74021 14.5006 4.86739 14.5006 5V5.5H15.0006C15.1332 5.5 15.2604 5.55268 15.3541 5.64645C15.4479 5.74021 15.5006 5.86739 15.5006 6Z" fill="#5B5A5A"/>
</g>
</svg>
